<svg width="236" height="39" viewBox="0 0 236 39" fill="none" xmlns="http://www.w3.org/2000/svg">
<g clip-path="url(#clip0)">
<path fill-rule="evenodd" clip-rule="evenodd" d="M18.1538 0L17.8736 0.0986182L0.621033 6.25088L0 6.47467L0.0757357 7.13086L2.70755 29.9458L2.75678 30.3706L3.13167 30.5792L17.7524 38.6773L18.1538 38.9011L18.559 38.6773L33.176 30.5792L33.5509 30.3706L33.6001 29.9458L36.232 7.13086L36.3077 6.47467L35.6867 6.25088L18.4341 0.0986182L18.1538 0Z" fill="#DD0031"/>
<path fill-rule="evenodd" clip-rule="evenodd" d="M21.1366 21.1356C21.2426 21.1356 21.3411 21.1773 21.4168 21.2494C21.4925 21.3214 21.5342 21.4238 21.5342 21.53H22.3446C22.3446 21.2076 22.2196 20.9042 21.9924 20.6766C21.7652 20.449 21.4622 20.3239 21.1404 20.3239C20.4739 20.3239 19.9324 20.8663 19.9324 21.53V22.3304H20.7427V21.53C20.739 21.3138 20.9169 21.1356 21.1366 21.1356Z" fill="white"/>
<path fill-rule="evenodd" clip-rule="evenodd" d="M12.0369 7.90176H6.14465V8.71347H12.5027L12.0369 7.90176Z" fill="white"/>
<path fill-rule="evenodd" clip-rule="evenodd" d="M20.0232 15.1161H17.8496L17.895 15.0895L16.7552 13.1058H15.8161L16.9749 15.1123H13.3244V14.3575C13.3244 14.2513 13.3661 14.1526 13.4418 14.0768C13.5175 14.0009 13.616 13.9592 13.722 13.9592C13.828 13.9592 13.9265 14.0009 14.0022 14.073C14.078 14.1489 14.1196 14.2475 14.1196 14.3537H14.93C14.93 14.0313 14.805 13.7278 14.5778 13.5002C14.3506 13.2727 14.0477 13.1475 13.7258 13.1475C13.4039 13.1475 13.101 13.2727 12.8738 13.5002C12.6466 13.7278 12.5216 14.0313 12.5216 14.3537V15.1047H9.62471V14.3537C9.62471 14.1375 9.80269 13.9592 10.0185 13.9592C10.2382 13.9592 10.4124 14.1375 10.4124 14.3537H11.2227C11.2227 13.6899 10.6812 13.1475 10.0147 13.1475C9.34827 13.1475 8.80676 13.6899 8.80676 14.3537V15.1047H7.72753V13.0982H6.9058V15.1047H6.14465V15.9164H20.4928L20.0232 15.1161Z" fill="white"/>
<path fill-rule="evenodd" clip-rule="evenodd" d="M16.0433 11.5089H13.9303L12.8018 9.54413H11.8627L12.9949 11.5089H7.71996V9.54413H6.9058V11.5089H6.14465V12.3206H16.5129L16.0433 11.5089Z" fill="white"/>
<path fill-rule="evenodd" clip-rule="evenodd" d="M23.6547 18.7232H21.8219L21.8447 18.7118L20.7048 16.7281H19.7657L20.9131 18.7232H17.0317V17.9229C17.0317 17.8167 17.0733 17.7181 17.149 17.6422C17.2248 17.5663 17.3232 17.5246 17.4293 17.5246C17.5353 17.5246 17.6338 17.5663 17.7095 17.6384C17.7852 17.7143 17.8269 17.8129 17.8269 17.9191H18.6373C18.6373 17.5967 18.5123 17.2933 18.2851 17.0657C18.0579 16.8381 17.7549 16.7129 17.4331 16.7129C17.1112 16.7129 16.8082 16.8381 16.581 17.0657C16.3538 17.2933 16.2289 17.5967 16.2289 17.9191V18.7194H13.332V17.9229C13.332 17.8167 13.3736 17.7181 13.4494 17.6422C13.5251 17.5663 13.6236 17.5246 13.7296 17.5246C13.9454 17.5246 14.1234 17.7029 14.1234 17.9191H14.9338C14.9338 17.2553 14.3923 16.7129 13.7258 16.7129C13.4039 16.7129 13.101 16.8381 12.8738 17.0657C12.6466 17.2933 12.5216 17.5967 12.5216 17.9191V18.7156H9.62471V17.9191C9.62471 17.7029 9.80269 17.5246 10.0185 17.5246C10.2344 17.5246 10.4124 17.7029 10.4124 17.9191H11.2227C11.2227 17.2553 10.6812 16.7129 10.0147 16.7129C9.34827 16.7129 8.80676 17.2553 8.80676 17.9191V18.7156H7.72374V16.7546H6.9058V18.7156H6.14465V19.5273H24.1243L23.6547 18.7232Z" fill="white"/>
<path fill-rule="evenodd" clip-rule="evenodd" d="M30.4445 15.9278V15.1161H20.9851L21.4509 15.9278H30.4445Z" fill="white"/>
<path fill-rule="evenodd" clip-rule="evenodd" d="M28.8691 16.7622V18.7232H24.6014L25.071 19.5349H30.4445V18.7232H29.6795V16.7622H28.8691Z" fill="white"/>
<path fill-rule="evenodd" clip-rule="evenodd" d="M29.6795 22.3342V20.3694H28.8691V22.3342H25.5671L24.4651 20.4187H23.526L24.6279 22.3342H17.0316V21.5338C17.0316 21.4276 17.0733 21.329 17.149 21.2532C17.2248 21.1773 17.3232 21.1356 17.4293 21.1356C17.5353 21.1356 17.6337 21.1773 17.7095 21.2494C17.7852 21.3252 17.8269 21.4238 17.8269 21.53H18.6372C18.6372 21.2076 18.5123 20.9042 18.2851 20.6766C18.0579 20.449 17.7549 20.3239 17.433 20.3239C17.1112 20.3239 16.8082 20.449 16.581 20.6766C16.3538 20.9042 16.2288 21.2076 16.2288 21.53V22.3304H13.332V21.5338C13.332 21.4276 13.3736 21.329 13.4493 21.2532C13.5251 21.1773 13.6235 21.1356 13.7296 21.1356C13.9454 21.1356 14.1234 21.3138 14.1234 21.53H14.9338C14.9338 20.8663 14.3923 20.3239 13.7258 20.3239C13.4039 20.3239 13.101 20.449 12.8738 20.6766C12.6465 20.9042 12.5216 21.2076 12.5216 21.53V22.3266H9.62469V21.53C9.62469 21.3138 9.80267 21.1356 10.0185 21.1356C10.1245 21.1356 10.223 21.1773 10.2987 21.2494C10.3745 21.3252 10.4161 21.4238 10.4161 21.53H11.2265C11.2265 21.2076 11.1015 20.9042 10.8743 20.6766C10.6471 20.449 10.3442 20.3239 10.0223 20.3239C9.35583 20.3239 8.81432 20.8663 8.81432 21.53V22.3266H7.71237V20.4111H6.88685V22.3266H3.50525L3.59992 23.1383H32.7127L32.8074 22.3266H29.6795V22.3342Z" fill="white"/>
<path fill-rule="evenodd" clip-rule="evenodd" d="M11.7225 24.3596V33.4363L12.5367 33.8839V24.3596H11.7225Z" fill="white"/>
<path fill-rule="evenodd" clip-rule="evenodd" d="M13.7296 24.3596V34.5476L14.5438 34.9952V24.3596H13.7296Z" fill="white"/>
<path fill-rule="evenodd" clip-rule="evenodd" d="M9.71558 24.3596V32.3249L10.5297 32.7725V24.3596H9.71558Z" fill="white"/>
<path fill-rule="evenodd" clip-rule="evenodd" d="M7.70862 24.3596V31.2098L8.51899 31.6612V24.3596H7.70862Z" fill="white"/>
<path fill-rule="evenodd" clip-rule="evenodd" d="M3.73999 24.3596L4.31179 29.3285L4.50492 29.4385V24.3596H3.73999Z" fill="white"/>
<path fill-rule="evenodd" clip-rule="evenodd" d="M17.7473 24.3596V36.7703L18.1525 36.9979L18.5577 36.7741V24.3596H17.7473Z" fill="white"/>
<path fill-rule="evenodd" clip-rule="evenodd" d="M5.70154 24.3596V30.0984L6.51191 30.5498V24.3596H5.70154Z" fill="white"/>
<path fill-rule="evenodd" clip-rule="evenodd" d="M15.7404 24.3596V35.659L16.5507 36.1104V24.3596H15.7404Z" fill="white"/>
<path fill-rule="evenodd" clip-rule="evenodd" d="M29.7931 24.3596V30.5498L30.6035 30.1022V24.3596H29.7931Z" fill="white"/>
<path fill-rule="evenodd" clip-rule="evenodd" d="M19.7544 24.3596V36.1104L20.5648 35.6628V24.3596H19.7544Z" fill="white"/>
<path fill-rule="evenodd" clip-rule="evenodd" d="M27.7861 24.3596V31.6612L28.5965 31.2136V24.3596H27.7861Z" fill="white"/>
<path fill-rule="evenodd" clip-rule="evenodd" d="M31.8002 24.3596V29.4385L31.9971 29.3285L32.5689 24.3596H31.8002Z" fill="white"/>
<path fill-rule="evenodd" clip-rule="evenodd" d="M25.7754 24.3596V32.7763L26.5896 32.3249V24.3596H25.7754Z" fill="white"/>
<path fill-rule="evenodd" clip-rule="evenodd" d="M21.7614 24.3596V34.999L22.5717 34.5476V24.3596H21.7614Z" fill="white"/>
<path fill-rule="evenodd" clip-rule="evenodd" d="M23.7683 24.3596V33.8877L24.5825 33.4363V24.3596H23.7683Z" fill="white"/>
</g>
<g clip-path="url(#clip1)">
<path fill-rule="evenodd" clip-rule="evenodd" d="M48.4103 6.91576L63.1408 20.5225V7.95312H67.2643V29.7896L52.5597 16.1829V28.7522H48.4103V6.91576ZM81.9257 21.0239V17.6438H92.2129C92.2734 19.2258 92.0832 20.7213 91.651 22.1218C91.2188 23.5308 90.5531 24.767 89.6627 25.8303C88.7723 26.9023 87.6572 27.7408 86.3345 28.3546C85.0032 28.9684 83.4818 29.2709 81.7528 29.2709C79.5917 29.2709 77.6726 28.8128 75.9955 27.8878C74.3184 26.9714 73.0044 25.6834 72.0535 24.0409C71.1026 22.3984 70.6271 20.4966 70.6271 18.344C70.6271 16.1829 71.1112 14.2983 72.0881 12.6731C73.0563 11.0479 74.3962 9.78579 76.0906 8.88675C77.7849 7.9877 79.7127 7.53817 81.8739 7.53817C83.9918 7.53817 85.8158 7.97041 87.346 8.82623C88.8761 9.6907 90.1123 10.8404 91.0632 12.2841L87.3978 14.4366C86.8619 13.5462 86.1443 12.8114 85.2453 12.2409C84.3462 11.6703 83.2224 11.3764 81.8739 11.3764C80.629 11.3764 79.4879 11.6617 78.4506 12.2236C77.4219 12.7855 76.6006 13.5895 75.9955 14.6268C75.3904 15.6642 75.0878 16.909 75.0878 18.3527C75.0878 19.7963 75.3817 21.0498 75.9782 22.1218C76.5747 23.1937 77.3786 24.0149 78.3987 24.6028C79.4188 25.1906 80.5772 25.4759 81.8652 25.4759C83.5682 25.4759 84.8995 25.0523 85.8504 24.1965C86.8013 23.3493 87.467 22.286 87.8387 21.0239H81.9257ZM108.266 21.2054V28.7436H103.987V7.97041H106.606H108.275H111.006C112.649 7.97041 114.058 8.24704 115.216 8.8003C116.375 9.35356 117.265 10.1316 117.879 11.1344C118.493 12.1371 118.804 13.2955 118.804 14.6182C118.804 16.0791 118.424 17.3413 117.663 18.4045C116.902 19.4592 115.813 20.2286 114.404 20.704L120.057 28.7436H114.974L110.099 21.2054H108.266ZM108.266 17.8167H110.73C111.836 17.8167 112.718 17.5487 113.375 17.0041C114.032 16.4595 114.361 15.6988 114.361 14.7306C114.361 13.7451 114.032 12.9757 113.375 12.4311C112.718 11.8865 111.836 11.6185 110.73 11.6185H108.266V17.8167ZM121.259 18.3527C121.259 16.7707 121.536 15.3184 122.089 14.0044C122.642 12.6904 123.42 11.5493 124.406 10.5897C125.4 9.63019 126.558 8.88675 127.898 8.35077C129.238 7.8148 130.69 7.54682 132.255 7.54682C133.837 7.54682 135.298 7.8148 136.629 8.35077C137.961 8.88675 139.119 9.63019 140.122 10.5897C141.125 11.5493 141.894 12.6904 142.439 14.0044C142.983 15.3184 143.26 16.7707 143.26 18.3527C143.26 19.9174 142.983 21.3697 142.439 22.701C141.894 24.0409 141.133 25.1906 140.148 26.1761C139.162 27.153 138.004 27.9137 136.673 28.4583C135.333 29.0029 133.863 29.2709 132.255 29.2709C130.647 29.2709 129.178 29.0029 127.838 28.4583C126.498 27.9137 125.339 27.153 124.363 26.1761C123.377 25.1993 122.616 24.0409 122.072 22.701C121.536 21.3697 121.259 19.9174 121.259 18.3527ZM125.78 18.3527C125.78 19.6753 126.057 20.8596 126.61 21.8884C127.163 22.9171 127.933 23.721 128.901 24.3089C129.869 24.8967 130.993 25.182 132.264 25.182C133.535 25.182 134.65 24.8881 135.627 24.3089C136.595 23.721 137.364 22.9171 137.917 21.8884C138.471 20.8596 138.747 19.684 138.747 18.3527C138.747 17.0214 138.479 15.8457 137.943 14.817C137.407 13.7883 136.655 12.9843 135.687 12.3965C134.71 11.8173 133.569 11.532 132.264 11.532C130.993 11.532 129.878 11.8259 128.901 12.4051C127.933 12.993 127.163 13.7969 126.61 14.8256C126.057 15.8544 125.78 17.03 125.78 18.3527ZM150.582 17.2894L149.242 28.7436H144.781L147.876 6.9244L156.616 20.315L165.295 6.9244L168.45 28.7436H163.929L162.589 17.2894L156.616 26.8158L150.582 17.2894ZM175.288 19.4851V25.1215H184.391V28.7436H175.288H173.862H171.13V7.97041H173.862H175.288H184.391V11.5839H175.288V15.9495H183.795V19.4851H175.288Z" fill="#DD0031"/>
</g>
<g clip-path="url(#clip2)">
<path fill-rule="evenodd" clip-rule="evenodd" d="M198.304 17.8255L197.72 23.3407H196.234L197.403 13.8315L200.892 19.9782L204.398 13.8315L205.566 23.3407H204.064L203.48 17.8433L200.892 22.5045L198.304 17.8255Z" fill="#DD0031"/>
<path fill-rule="evenodd" clip-rule="evenodd" d="M210.249 17.8255L209.665 23.3407H208.179L209.348 13.8315L212.837 19.9782L216.343 13.8315L217.511 23.3407H216.009L215.424 17.8433L212.837 22.5045L210.249 17.8255Z" fill="#DD0031"/>
<path fill-rule="evenodd" clip-rule="evenodd" d="M225.023 14.2852H226.776L224.197 18.635L226.96 23.3406H225.207L223.379 19.8626L221.501 23.3406H219.756L222.578 18.635L220.049 14.2852H221.802L223.396 17.3363L225.023 14.2852Z" fill="#DD0031"/>
<path fill-rule="evenodd" clip-rule="evenodd" d="M234.063 14.2852H235.816L233.237 18.635L236 23.3406H234.247L232.427 19.8626L230.541 23.3406H228.796L231.618 18.635L229.089 14.2852H230.841L232.436 17.3363L234.063 14.2852Z" fill="#DD0031"/>
</g>
<defs>
<clipPath id="clip0">
<rect width="36.3077" height="38.9011" fill="white"/>
</clipPath>
<clipPath id="clip1">
<rect width="135.981" height="22.8825" fill="white" transform="translate(48.4103 6.91576)"/>
</clipPath>
<clipPath id="clip2">
<rect width="39.7656" height="9.50916" fill="white" transform="translate(196.234 13.8315)"/>
</clipPath>
</defs>
</svg>
